<?xml version="1.0" encoding="UTF-8" standalone="no"?>
<!DOCTYPE svg PUBLIC "-//W3C//DTD SVG 1.1//EN"
 "http://www.w3.org/Graphics/SVG/1.1/DTD/svg11.dtd">
<!-- Generated by graphviz version 2.38.0 (20140413.2041)
 -->
<!-- Title: controllers_diagram Pages: 1 -->
<svg width="943pt" height="882pt"
 viewBox="0.00 0.00 942.50 882.00" xmlns="http://www.w3.org/2000/svg" xmlns:xlink="http://www.w3.org/1999/xlink">
<g id="graph0" class="graph" transform="scale(1 1) rotate(0) translate(394.5 487.5)">
<title>controllers_diagram</title>
<polygon fill="none" stroke="none" points="-394.5,394.5 -394.5,-487.5 548,-487.5 548,394.5 -394.5,394.5"/>
<!-- _diagram_info -->
<g id="node1" class="node"><title>_diagram_info</title>
<text text-anchor="start" x="263.5" y="21.4" font-family="Times New Roman,serif" font-size="13.00">Controllers diagram</text>
<text text-anchor="start" x="263.5" y="35.4" font-family="Times New Roman,serif" font-size="13.00">Date: Apr 11 2016 &#45; 01:29</text>
<text text-anchor="start" x="263.5" y="49.4" font-family="Times New Roman,serif" font-size="13.00">Migration version: 20160410122139</text>
<text text-anchor="start" x="263.5" y="63.4" font-family="Times New Roman,serif" font-size="13.00">Generated by RailRoady 1.4.2</text>
<text text-anchor="start" x="263.5" y="77.4" font-family="Times New Roman,serif" font-size="13.00">http://railroady.prestonlee.com</text>
</g>
<!-- AccountActivationsController -->
<g id="node2" class="node"><title>AccountActivationsController</title>
<path fill="none" stroke="black" d="M267,-34.5C267,-34.5 427,-34.5 427,-34.5 433,-34.5 439,-40.5 439,-46.5 439,-46.5 439,-115.5 439,-115.5 439,-121.5 433,-127.5 427,-127.5 427,-127.5 267,-127.5 267,-127.5 261,-127.5 255,-121.5 255,-115.5 255,-115.5 255,-46.5 255,-46.5 255,-40.5 261,-34.5 267,-34.5"/>
<text text-anchor="middle" x="347" y="-112.3" font-family="Times New Roman,serif" font-size="14.00">AccountActivationsController</text>
<polyline fill="none" stroke="black" points="255,-104.5 439,-104.5 "/>
<text text-anchor="start" x="263" y="-89.3" font-family="Times New Roman,serif" font-size="14.00">edit</text>
<polyline fill="none" stroke="black" points="255,-81.5 439,-81.5 "/>
<polyline fill="none" stroke="black" points="255,-57.5 439,-57.5 "/>
<text text-anchor="start" x="263" y="-42.3" font-family="Times New Roman,serif" font-size="14.00">_layout</text>
</g>
<!-- AdminsController -->
<g id="node3" class="node"><title>AdminsController</title>
<path fill="none" stroke="black" d="M301,288.5C301,288.5 393,288.5 393,288.5 399,288.5 405,282.5 405,276.5 405,276.5 405,147.5 405,147.5 405,141.5 399,135.5 393,135.5 393,135.5 301,135.5 301,135.5 295,135.5 289,141.5 289,147.5 289,147.5 289,276.5 289,276.5 289,282.5 295,288.5 301,288.5"/>
<text text-anchor="middle" x="347" y="150.7" font-family="Times New Roman,serif" font-size="14.00">AdminsController</text>
<polyline fill="none" stroke="black" points="289,158.5 405,158.5 "/>
<text text-anchor="start" x="297" y="173.7" font-family="Times New Roman,serif" font-size="14.00">destroy</text>
<text text-anchor="start" x="297" y="188.7" font-family="Times New Roman,serif" font-size="14.00">disable_account</text>
<text text-anchor="start" x="297" y="203.7" font-family="Times New Roman,serif" font-size="14.00">make_admin</text>
<text text-anchor="start" x="297" y="218.7" font-family="Times New Roman,serif" font-size="14.00">show</text>
<text text-anchor="start" x="297" y="233.7" font-family="Times New Roman,serif" font-size="14.00">undo_admin</text>
<polyline fill="none" stroke="black" points="289,241.5 405,241.5 "/>
<polyline fill="none" stroke="black" points="289,265.5 405,265.5 "/>
<text text-anchor="start" x="297" y="280.7" font-family="Times New Roman,serif" font-size="14.00">_layout</text>
</g>
<!-- ApplicationController -->
<g id="node4" class="node"><title>ApplicationController</title>
<path fill="none" stroke="black" d="M-72.5,305.5C-72.5,305.5 40.5,305.5 40.5,305.5 46.5,305.5 52.5,299.5 52.5,293.5 52.5,293.5 52.5,194.5 52.5,194.5 52.5,188.5 46.5,182.5 40.5,182.5 40.5,182.5 -72.5,182.5 -72.5,182.5 -78.5,182.5 -84.5,188.5 -84.5,194.5 -84.5,194.5 -84.5,293.5 -84.5,293.5 -84.5,299.5 -78.5,305.5 -72.5,305.5"/>
<text text-anchor="middle" x="-16" y="197.7" font-family="Times New Roman,serif" font-size="14.00">ApplicationController</text>
<polyline fill="none" stroke="black" points="-84.5,205.5 52.5,205.5 "/>
<text text-anchor="start" x="-76.5" y="220.7" font-family="Times New Roman,serif" font-size="14.00">check_auth</text>
<text text-anchor="start" x="-76.5" y="235.7" font-family="Times New Roman,serif" font-size="14.00">dont_url_manipulate</text>
<text text-anchor="start" x="-76.5" y="250.7" font-family="Times New Roman,serif" font-size="14.00">logged_in_user</text>
<polyline fill="none" stroke="black" points="-84.5,258.5 52.5,258.5 "/>
<polyline fill="none" stroke="black" points="-84.5,282.5 52.5,282.5 "/>
<text text-anchor="start" x="-76.5" y="297.7" font-family="Times New Roman,serif" font-size="14.00">_layout</text>
</g>
<!-- CratesController -->
<g id="node5" class="node"><title>CratesController</title>
<path fill="none" stroke="black" d="M-56,-153.5C-56,-153.5 40,-153.5 40,-153.5 46,-153.5 52,-159.5 52,-165.5 52,-165.5 52,-384.5 52,-384.5 52,-390.5 46,-396.5 40,-396.5 40,-396.5 -56,-396.5 -56,-396.5 -62,-396.5 -68,-390.5 -68,-384.5 -68,-384.5 -68,-165.5 -68,-165.5 -68,-159.5 -62,-153.5 -56,-153.5"/>
<text text-anchor="middle" x="-8" y="-381.3" font-family="Times New Roman,serif" font-size="14.00">CratesController</text>
<polyline fill="none" stroke="black" points="-68,-373.5 52,-373.5 "/>
<text text-anchor="start" x="-60" y="-358.3" font-family="Times New Roman,serif" font-size="14.00">add_profile</text>
<text text-anchor="start" x="-60" y="-343.3" font-family="Times New Roman,serif" font-size="14.00">create</text>
<text text-anchor="start" x="-60" y="-328.3" font-family="Times New Roman,serif" font-size="14.00">destroy</text>
<text text-anchor="start" x="-60" y="-313.3" font-family="Times New Roman,serif" font-size="14.00">edit</text>
<text text-anchor="start" x="-60" y="-298.3" font-family="Times New Roman,serif" font-size="14.00">index</text>
<text text-anchor="start" x="-60" y="-283.3" font-family="Times New Roman,serif" font-size="14.00">new</text>
<text text-anchor="start" x="-60" y="-268.3" font-family="Times New Roman,serif" font-size="14.00">show</text>
<text text-anchor="start" x="-60" y="-253.3" font-family="Times New Roman,serif" font-size="14.00">update</text>
<polyline fill="none" stroke="black" points="-68,-245.5 52,-245.5 "/>
<polyline fill="none" stroke="black" points="-68,-221.5 52,-221.5 "/>
<text text-anchor="start" x="-60" y="-206.3" font-family="Times New Roman,serif" font-size="14.00">_layout</text>
<text text-anchor="start" x="-60" y="-191.3" font-family="Times New Roman,serif" font-size="14.00">check_user_status</text>
<text text-anchor="start" x="-60" y="-176.3" font-family="Times New Roman,serif" font-size="14.00">correct_crate</text>
<text text-anchor="start" x="-60" y="-161.3" font-family="Times New Roman,serif" font-size="14.00">crate_params</text>
</g>
<!-- ForumCategoriesController -->
<g id="node6" class="node"><title>ForumCategoriesController</title>
<path fill="none" stroke="black" d="M386,-170.5C386,-170.5 532,-170.5 532,-170.5 538,-170.5 544,-176.5 544,-182.5 544,-182.5 544,-251.5 544,-251.5 544,-257.5 538,-263.5 532,-263.5 532,-263.5 386,-263.5 386,-263.5 380,-263.5 374,-257.5 374,-251.5 374,-251.5 374,-182.5 374,-182.5 374,-176.5 380,-170.5 386,-170.5"/>
<text text-anchor="middle" x="459" y="-248.3" font-family="Times New Roman,serif" font-size="14.00">ForumCategoriesController</text>
<polyline fill="none" stroke="black" points="374,-240.5 544,-240.5 "/>
<text text-anchor="start" x="382" y="-225.3" font-family="Times New Roman,serif" font-size="14.00">show</text>
<polyline fill="none" stroke="black" points="374,-217.5 544,-217.5 "/>
<polyline fill="none" stroke="black" points="374,-193.5 544,-193.5 "/>
<text text-anchor="start" x="382" y="-178.3" font-family="Times New Roman,serif" font-size="14.00">_layout</text>
</g>
<!-- ForumCommentsController -->
<g id="node7" class="node"><title>ForumCommentsController</title>
<path fill="none" stroke="black" d="M97.5,254C97.5,254 244.5,254 244.5,254 250.5,254 256.5,248 256.5,242 256.5,242 256.5,128 256.5,128 256.5,122 250.5,116 244.5,116 244.5,116 97.5,116 97.5,116 91.5,116 85.5,122 85.5,128 85.5,128 85.5,242 85.5,242 85.5,248 91.5,254 97.5,254"/>
<text text-anchor="middle" x="171" y="131.2" font-family="Times New Roman,serif" font-size="14.00">ForumCommentsController</text>
<polyline fill="none" stroke="black" points="85.5,139 256.5,139 "/>
<text text-anchor="start" x="93.5" y="154.2" font-family="Times New Roman,serif" font-size="14.00">create</text>
<text text-anchor="start" x="93.5" y="169.2" font-family="Times New Roman,serif" font-size="14.00">edit</text>
<text text-anchor="start" x="93.5" y="184.2" font-family="Times New Roman,serif" font-size="14.00">update</text>
<polyline fill="none" stroke="black" points="85.5,192 256.5,192 "/>
<polyline fill="none" stroke="black" points="85.5,216 256.5,216 "/>
<text text-anchor="start" x="93.5" y="231.2" font-family="Times New Roman,serif" font-size="14.00">_layout</text>
<text text-anchor="start" x="93.5" y="246.2" font-family="Times New Roman,serif" font-size="14.00">forum_comment_params</text>
</g>
<!-- ForumPostsController -->
<g id="node8" class="node"><title>ForumPostsController</title>
<path fill="none" stroke="black" d="M97,84C97,84 215,84 215,84 221,84 227,78 227,72 227,72 227,-132 227,-132 227,-138 221,-144 215,-144 215,-144 97,-144 97,-144 91,-144 85,-138 85,-132 85,-132 85,72 85,72 85,78 91,84 97,84"/>
<text text-anchor="middle" x="156" y="-128.8" font-family="Times New Roman,serif" font-size="14.00">ForumPostsController</text>
<polyline fill="none" stroke="black" points="85,-121 227,-121 "/>
<text text-anchor="start" x="93" y="-105.8" font-family="Times New Roman,serif" font-size="14.00">change_lock</text>
<text text-anchor="start" x="93" y="-90.8" font-family="Times New Roman,serif" font-size="14.00">change_pin</text>
<text text-anchor="start" x="93" y="-75.8" font-family="Times New Roman,serif" font-size="14.00">change_subsc</text>
<text text-anchor="start" x="93" y="-60.8" font-family="Times New Roman,serif" font-size="14.00">correct_f_user</text>
<text text-anchor="start" x="93" y="-45.8" font-family="Times New Roman,serif" font-size="14.00">create</text>
<text text-anchor="start" x="93" y="-30.8" font-family="Times New Roman,serif" font-size="14.00">edit</text>
<text text-anchor="start" x="93" y="-15.8" font-family="Times New Roman,serif" font-size="14.00">new</text>
<text text-anchor="start" x="93" y="-0.8" font-family="Times New Roman,serif" font-size="14.00">show</text>
<text text-anchor="start" x="93" y="14.2" font-family="Times New Roman,serif" font-size="14.00">update</text>
<polyline fill="none" stroke="black" points="85,22 227,22 "/>
<polyline fill="none" stroke="black" points="85,46 227,46 "/>
<text text-anchor="start" x="93" y="61.2" font-family="Times New Roman,serif" font-size="14.00">_layout</text>
<text text-anchor="start" x="93" y="76.2" font-family="Times New Roman,serif" font-size="14.00">forum_post_params</text>
</g>
<!-- GroupsController -->
<g id="node9" class="node"><title>GroupsController</title>
<path fill="none" stroke="black" d="M97,390C97,390 189,390 189,390 195,390 201,384 201,378 201,378 201,294 201,294 201,288 195,282 189,282 189,282 97,282 97,282 91,282 85,288 85,294 85,294 85,378 85,378 85,384 91,390 97,390"/>
<text text-anchor="middle" x="143" y="297.2" font-family="Times New Roman,serif" font-size="14.00">GroupsController</text>
<polyline fill="none" stroke="black" points="85,305 201,305 "/>
<text text-anchor="start" x="93" y="320.2" font-family="Times New Roman,serif" font-size="14.00">index</text>
<text text-anchor="start" x="93" y="335.2" font-family="Times New Roman,serif" font-size="14.00">show</text>
<polyline fill="none" stroke="black" points="85,343 201,343 "/>
<polyline fill="none" stroke="black" points="85,367 201,367 "/>
<text text-anchor="start" x="93" y="382.2" font-family="Times New Roman,serif" font-size="14.00">_layout</text>
</g>
<!-- GuidesController -->
<g id="node10" class="node"><title>GuidesController</title>
<path fill="none" stroke="black" d="M-378.5,16.5C-378.5,16.5 -289.5,16.5 -289.5,16.5 -283.5,16.5 -277.5,10.5 -277.5,4.5 -277.5,4.5 -277.5,-64.5 -277.5,-64.5 -277.5,-70.5 -283.5,-76.5 -289.5,-76.5 -289.5,-76.5 -378.5,-76.5 -378.5,-76.5 -384.5,-76.5 -390.5,-70.5 -390.5,-64.5 -390.5,-64.5 -390.5,4.5 -390.5,4.5 -390.5,10.5 -384.5,16.5 -378.5,16.5"/>
<text text-anchor="middle" x="-334" y="-61.3" font-family="Times New Roman,serif" font-size="14.00">GuidesController</text>
<polyline fill="none" stroke="black" points="-390.5,-53.5 -277.5,-53.5 "/>
<text text-anchor="start" x="-382.5" y="-38.3" font-family="Times New Roman,serif" font-size="14.00">show</text>
<polyline fill="none" stroke="black" points="-390.5,-30.5 -277.5,-30.5 "/>
<polyline fill="none" stroke="black" points="-390.5,-6.5 -277.5,-6.5 "/>
<text text-anchor="start" x="-382.5" y="8.7" font-family="Times New Roman,serif" font-size="14.00">_layout</text>
</g>
<!-- PagesController -->
<g id="node11" class="node"><title>PagesController</title>
<path fill="none" stroke="black" d="M-192,-1C-192,-1 -110,-1 -110,-1 -104,-1 -98,-7 -98,-13 -98,-13 -98,-217 -98,-217 -98,-223 -104,-229 -110,-229 -110,-229 -192,-229 -192,-229 -198,-229 -204,-223 -204,-217 -204,-217 -204,-13 -204,-13 -204,-7 -198,-1 -192,-1"/>
<text text-anchor="middle" x="-151" y="-213.8" font-family="Times New Roman,serif" font-size="14.00">PagesController</text>
<polyline fill="none" stroke="black" points="-204,-206 -98,-206 "/>
<text text-anchor="start" x="-196" y="-190.8" font-family="Times New Roman,serif" font-size="14.00">change_status</text>
<text text-anchor="start" x="-196" y="-175.8" font-family="Times New Roman,serif" font-size="14.00">community</text>
<text text-anchor="start" x="-196" y="-160.8" font-family="Times New Roman,serif" font-size="14.00">crate_manager</text>
<text text-anchor="start" x="-196" y="-145.8" font-family="Times New Roman,serif" font-size="14.00">home</text>
<text text-anchor="start" x="-196" y="-130.8" font-family="Times New Roman,serif" font-size="14.00">home_guest</text>
<polyline fill="none" stroke="black" points="-204,-123 -98,-123 "/>
<polyline fill="none" stroke="black" points="-204,-99 -98,-99 "/>
<text text-anchor="start" x="-196" y="-83.8" font-family="Times New Roman,serif" font-size="14.00">_layout</text>
<text text-anchor="start" x="-196" y="-68.8" font-family="Times New Roman,serif" font-size="14.00">get_c_queries</text>
<text text-anchor="start" x="-196" y="-53.8" font-family="Times New Roman,serif" font-size="14.00">get_f_queries</text>
<text text-anchor="start" x="-196" y="-38.8" font-family="Times New Roman,serif" font-size="14.00">get_replies</text>
<text text-anchor="start" x="-196" y="-23.8" font-family="Times New Roman,serif" font-size="14.00">is_logged_in</text>
<text text-anchor="start" x="-196" y="-8.8" font-family="Times New Roman,serif" font-size="14.00">search_byst</text>
</g>
<!-- PasswordResetsController -->
<g id="node12" class="node"><title>PasswordResetsController</title>
<path fill="none" stroke="black" d="M182,-171C182,-171 324,-171 324,-171 330,-171 336,-177 336,-183 336,-183 336,-357 336,-357 336,-363 330,-369 324,-369 324,-369 182,-369 182,-369 176,-369 170,-363 170,-357 170,-357 170,-183 170,-183 170,-177 176,-171 182,-171"/>
<text text-anchor="middle" x="253" y="-353.8" font-family="Times New Roman,serif" font-size="14.00">PasswordResetsController</text>
<polyline fill="none" stroke="black" points="170,-346 336,-346 "/>
<text text-anchor="start" x="178" y="-330.8" font-family="Times New Roman,serif" font-size="14.00">create</text>
<text text-anchor="start" x="178" y="-315.8" font-family="Times New Roman,serif" font-size="14.00">edit</text>
<text text-anchor="start" x="178" y="-300.8" font-family="Times New Roman,serif" font-size="14.00">new</text>
<text text-anchor="start" x="178" y="-285.8" font-family="Times New Roman,serif" font-size="14.00">update</text>
<polyline fill="none" stroke="black" points="170,-278 336,-278 "/>
<polyline fill="none" stroke="black" points="170,-254 336,-254 "/>
<text text-anchor="start" x="178" y="-238.8" font-family="Times New Roman,serif" font-size="14.00">_layout</text>
<text text-anchor="start" x="178" y="-223.8" font-family="Times New Roman,serif" font-size="14.00">check_expiration</text>
<text text-anchor="start" x="178" y="-208.8" font-family="Times New Roman,serif" font-size="14.00">get_user</text>
<text text-anchor="start" x="178" y="-193.8" font-family="Times New Roman,serif" font-size="14.00">user_params</text>
<text text-anchor="start" x="178" y="-178.8" font-family="Times New Roman,serif" font-size="14.00">valid_user</text>
</g>
<!-- ProfilesController -->
<g id="node13" class="node"><title>ProfilesController</title>
<path fill="none" stroke="black" d="M-226,237C-226,237 -134,237 -134,237 -128,237 -122,231 -122,225 -122,225 -122,51 -122,51 -122,45 -128,39 -134,39 -134,39 -226,39 -226,39 -232,39 -238,45 -238,51 -238,51 -238,225 -238,225 -238,231 -232,237 -226,237"/>
<text text-anchor="middle" x="-180" y="54.2" font-family="Times New Roman,serif" font-size="14.00">ProfilesController</text>
<polyline fill="none" stroke="black" points="-238,62 -122,62 "/>
<text text-anchor="start" x="-230" y="77.2" font-family="Times New Roman,serif" font-size="14.00">check_profile</text>
<text text-anchor="start" x="-230" y="92.2" font-family="Times New Roman,serif" font-size="14.00">correct_user</text>
<text text-anchor="start" x="-230" y="107.2" font-family="Times New Roman,serif" font-size="14.00">create</text>
<text text-anchor="start" x="-230" y="122.2" font-family="Times New Roman,serif" font-size="14.00">edit</text>
<text text-anchor="start" x="-230" y="137.2" font-family="Times New Roman,serif" font-size="14.00">new</text>
<text text-anchor="start" x="-230" y="152.2" font-family="Times New Roman,serif" font-size="14.00">show</text>
<text text-anchor="start" x="-230" y="167.2" font-family="Times New Roman,serif" font-size="14.00">update</text>
<polyline fill="none" stroke="black" points="-238,175 -122,175 "/>
<polyline fill="none" stroke="black" points="-238,199 -122,199 "/>
<text text-anchor="start" x="-230" y="214.2" font-family="Times New Roman,serif" font-size="14.00">_layout</text>
<text text-anchor="start" x="-230" y="229.2" font-family="Times New Roman,serif" font-size="14.00">profile_params</text>
</g>
<!-- QueriesController -->
<g id="node14" class="node"><title>QueriesController</title>
<path fill="none" stroke="black" d="M-345,-120C-345,-120 -253,-120 -253,-120 -247,-120 -241,-126 -241,-132 -241,-132 -241,-216 -241,-216 -241,-222 -247,-228 -253,-228 -253,-228 -345,-228 -345,-228 -351,-228 -357,-222 -357,-216 -357,-216 -357,-132 -357,-132 -357,-126 -351,-120 -345,-120"/>
<text text-anchor="middle" x="-299" y="-212.8" font-family="Times New Roman,serif" font-size="14.00">QueriesController</text>
<polyline fill="none" stroke="black" points="-357,-205 -241,-205 "/>
<text text-anchor="start" x="-349" y="-189.8" font-family="Times New Roman,serif" font-size="14.00">create</text>
<polyline fill="none" stroke="black" points="-357,-182 -241,-182 "/>
<polyline fill="none" stroke="black" points="-357,-158 -241,-158 "/>
<text text-anchor="start" x="-349" y="-142.8" font-family="Times New Roman,serif" font-size="14.00">_layout</text>
<text text-anchor="start" x="-349" y="-127.8" font-family="Times New Roman,serif" font-size="14.00">query_params</text>
</g>
<!-- RepliesController -->
<g id="node15" class="node"><title>RepliesController</title>
<path fill="none" stroke="black" d="M386,-307C386,-307 476,-307 476,-307 482,-307 488,-313 488,-319 488,-319 488,-403 488,-403 488,-409 482,-415 476,-415 476,-415 386,-415 386,-415 380,-415 374,-409 374,-403 374,-403 374,-319 374,-319 374,-313 380,-307 386,-307"/>
<text text-anchor="middle" x="431" y="-399.8" font-family="Times New Roman,serif" font-size="14.00">RepliesController</text>
<polyline fill="none" stroke="black" points="374,-392 488,-392 "/>
<text text-anchor="start" x="382" y="-376.8" font-family="Times New Roman,serif" font-size="14.00">create</text>
<text text-anchor="start" x="382" y="-361.8" font-family="Times New Roman,serif" font-size="14.00">reply_params</text>
<polyline fill="none" stroke="black" points="374,-354 488,-354 "/>
<polyline fill="none" stroke="black" points="374,-330 488,-330 "/>
<text text-anchor="start" x="382" y="-314.8" font-family="Times New Roman,serif" font-size="14.00">_layout</text>
</g>
<!-- ReportsController -->
<g id="node16" class="node"><title>ReportsController</title>
<path fill="none" stroke="black" d="M-362,-375C-362,-375 -268,-375 -268,-375 -262,-375 -256,-381 -256,-387 -256,-387 -256,-471 -256,-471 -256,-477 -262,-483 -268,-483 -268,-483 -362,-483 -362,-483 -368,-483 -374,-477 -374,-471 -374,-471 -374,-387 -374,-387 -374,-381 -368,-375 -362,-375"/>
<text text-anchor="middle" x="-315" y="-467.8" font-family="Times New Roman,serif" font-size="14.00">ReportsController</text>
<polyline fill="none" stroke="black" points="-374,-460 -256,-460 "/>
<text text-anchor="start" x="-366" y="-444.8" font-family="Times New Roman,serif" font-size="14.00">create</text>
<polyline fill="none" stroke="black" points="-374,-437 -256,-437 "/>
<polyline fill="none" stroke="black" points="-374,-413 -256,-413 "/>
<text text-anchor="start" x="-366" y="-397.8" font-family="Times New Roman,serif" font-size="14.00">_layout</text>
<text text-anchor="start" x="-366" y="-382.8" font-family="Times New Roman,serif" font-size="14.00">report_params</text>
</g>
<!-- SearchesController -->
<g id="node17" class="node"><title>SearchesController</title>
<path fill="none" stroke="black" d="M-361.5,373C-361.5,373 -262.5,373 -262.5,373 -256.5,373 -250.5,367 -250.5,361 -250.5,361 -250.5,291 -250.5,291 -250.5,285 -256.5,279 -262.5,279 -262.5,279 -361.5,279 -361.5,279 -367.5,279 -373.5,285 -373.5,291 -373.5,291 -373.5,361 -373.5,361 -373.5,367 -367.5,373 -361.5,373"/>
<text text-anchor="middle" x="-312" y="294.2" font-family="Times New Roman,serif" font-size="14.00">SearchesController</text>
<polyline fill="none" stroke="black" points="-373.5,302 -250.5,302 "/>
<polyline fill="none" stroke="black" points="-373.5,326 -250.5,326 "/>
<polyline fill="none" stroke="black" points="-373.5,350 -250.5,350 "/>
<text text-anchor="start" x="-365.5" y="365.2" font-family="Times New Roman,serif" font-size="14.00">_layout</text>
</g>
<!-- SessionsController -->
<g id="node18" class="node"><title>SessionsController</title>
<path fill="none" stroke="black" d="M-209,-255.5C-209,-255.5 -111,-255.5 -111,-255.5 -105,-255.5 -99,-261.5 -99,-267.5 -99,-267.5 -99,-396.5 -99,-396.5 -99,-402.5 -105,-408.5 -111,-408.5 -111,-408.5 -209,-408.5 -209,-408.5 -215,-408.5 -221,-402.5 -221,-396.5 -221,-396.5 -221,-267.5 -221,-267.5 -221,-261.5 -215,-255.5 -209,-255.5"/>
<text text-anchor="middle" x="-160" y="-393.3" font-family="Times New Roman,serif" font-size="14.00">SessionsController</text>
<polyline fill="none" stroke="black" points="-221,-385.5 -99,-385.5 "/>
<text text-anchor="start" x="-213" y="-370.3" font-family="Times New Roman,serif" font-size="14.00">check_user</text>
<text text-anchor="start" x="-213" y="-355.3" font-family="Times New Roman,serif" font-size="14.00">create</text>
<text text-anchor="start" x="-213" y="-340.3" font-family="Times New Roman,serif" font-size="14.00">destroy</text>
<text text-anchor="start" x="-213" y="-325.3" font-family="Times New Roman,serif" font-size="14.00">new</text>
<polyline fill="none" stroke="black" points="-221,-317.5 -99,-317.5 "/>
<polyline fill="none" stroke="black" points="-221,-293.5 -99,-293.5 "/>
<text text-anchor="start" x="-213" y="-278.3" font-family="Times New Roman,serif" font-size="14.00">_layout</text>
<text text-anchor="start" x="-213" y="-263.3" font-family="Times New Roman,serif" font-size="14.00">user_status_enab</text>
</g>
<!-- UsersController -->
<g id="node19" class="node"><title>UsersController</title>
<path fill="none" stroke="black" d="M-55.5,152.5C-55.5,152.5 39.5,152.5 39.5,152.5 45.5,152.5 51.5,146.5 51.5,140.5 51.5,140.5 51.5,-108.5 51.5,-108.5 51.5,-114.5 45.5,-120.5 39.5,-120.5 39.5,-120.5 -55.5,-120.5 -55.5,-120.5 -61.5,-120.5 -67.5,-114.5 -67.5,-108.5 -67.5,-108.5 -67.5,140.5 -67.5,140.5 -67.5,146.5 -61.5,152.5 -55.5,152.5"/>
<text text-anchor="middle" x="-8" y="-105.3" font-family="Times New Roman,serif" font-size="14.00">UsersController</text>
<polyline fill="none" stroke="black" points="-67.5,-97.5 51.5,-97.5 "/>
<text text-anchor="start" x="-59.5" y="-82.3" font-family="Times New Roman,serif" font-size="14.00">activate</text>
<text text-anchor="start" x="-59.5" y="-67.3" font-family="Times New Roman,serif" font-size="14.00">correct_user</text>
<text text-anchor="start" x="-59.5" y="-52.3" font-family="Times New Roman,serif" font-size="14.00">create</text>
<text text-anchor="start" x="-59.5" y="-37.3" font-family="Times New Roman,serif" font-size="14.00">deactivate</text>
<text text-anchor="start" x="-59.5" y="-22.3" font-family="Times New Roman,serif" font-size="14.00">edit</text>
<text text-anchor="start" x="-59.5" y="-7.3" font-family="Times New Roman,serif" font-size="14.00">index</text>
<text text-anchor="start" x="-59.5" y="7.7" font-family="Times New Roman,serif" font-size="14.00">new</text>
<text text-anchor="start" x="-59.5" y="22.7" font-family="Times New Roman,serif" font-size="14.00">show</text>
<text text-anchor="start" x="-59.5" y="37.7" font-family="Times New Roman,serif" font-size="14.00">update</text>
<polyline fill="none" stroke="black" points="-67.5,45.5 51.5,45.5 "/>
<polyline fill="none" stroke="black" points="-67.5,69.5 51.5,69.5 "/>
<text text-anchor="start" x="-59.5" y="84.7" font-family="Times New Roman,serif" font-size="14.00">_layout</text>
<text text-anchor="start" x="-59.5" y="99.7" font-family="Times New Roman,serif" font-size="14.00">change_crates_asi</text>
<text text-anchor="start" x="-59.5" y="114.7" font-family="Times New Roman,serif" font-size="14.00">change_status</text>
<text text-anchor="start" x="-59.5" y="129.7" font-family="Times New Roman,serif" font-size="14.00">check_status</text>
<text text-anchor="start" x="-59.5" y="144.7" font-family="Times New Roman,serif" font-size="14.00">user_params</text>
</g>
</g>
</svg>
