<?xml version="1.0" encoding="UTF-8" standalone="no"?>
<!DOCTYPE svg PUBLIC "-//W3C//DTD SVG 1.1//EN"
 "http://www.w3.org/Graphics/SVG/1.1/DTD/svg11.dtd">
<!-- Generated by graphviz version 2.38.0 (20140413.2041)
 -->
<!-- Title: models_diagram Pages: 1 -->
<svg width="1497pt" height="465pt"
 viewBox="0.00 0.00 1496.84 465.00" xmlns="http://www.w3.org/2000/svg" xmlns:xlink="http://www.w3.org/1999/xlink">
<g id="graph0" class="graph" transform="scale(1 1) rotate(0) translate(4 461)">
<title>models_diagram</title>
<polygon fill="none" stroke="none" points="-4,4 -4,-461 1492.84,-461 1492.84,4 -4,4"/>
<!-- _diagram_info -->
<g id="node1" class="node"><title>_diagram_info</title>
<text text-anchor="start" x="385.344" y="-442.6" font-family="Times New Roman,serif" font-size="13.00">Models diagram</text>
<text text-anchor="start" x="385.344" y="-428.6" font-family="Times New Roman,serif" font-size="13.00">Date: Apr 11 2016 &#45; 01:29</text>
<text text-anchor="start" x="385.344" y="-414.6" font-family="Times New Roman,serif" font-size="13.00">Migration version: 20160410122139</text>
<text text-anchor="start" x="385.344" y="-400.6" font-family="Times New Roman,serif" font-size="13.00">Generated by RailRoady 1.4.2</text>
<text text-anchor="start" x="385.344" y="-386.6" font-family="Times New Roman,serif" font-size="13.00">http://railroady.prestonlee.com</text>
</g>
<!-- ActiveStatus -->
<g id="node2" class="node"><title>ActiveStatus</title>
<ellipse fill="none" stroke="black" cx="1258.84" cy="-324" rx="56.59" ry="18"/>
<text text-anchor="middle" x="1258.84" y="-320.3" font-family="Times New Roman,serif" font-size="14.00">ActiveStatus</text>
</g>
<!-- Crate -->
<g id="node5" class="node"><title>Crate</title>
<ellipse fill="none" stroke="black" cx="1258.84" cy="-251" rx="30.5947" ry="18"/>
<text text-anchor="middle" x="1258.84" y="-247.3" font-family="Times New Roman,serif" font-size="14.00">Crate</text>
</g>
<!-- ActiveStatus&#45;&gt;Crate -->
<g id="edge1" class="edge"><title>ActiveStatus&#45;&gt;Crate</title>
<path fill="none" stroke="#c711ee" d="M1252.35,-297.791C1252.04,-291.832 1252.01,-285.45 1252.25,-279.399"/>
<ellipse fill="none" stroke="#c711ee" cx="1252.66" cy="-301.825" rx="4" ry="4"/>
<polygon fill="#c711ee" stroke="#c711ee" points="1252.28,-279.004 1257.47,-269.345 1252.63,-274.017 1252.98,-269.029 1252.98,-269.029 1252.98,-269.029 1252.63,-274.017 1248.49,-268.713 1252.28,-279.004 1252.28,-279.004"/>
</g>
<!-- Admin -->
<g id="node3" class="node"><title>Admin</title>
<ellipse fill="none" stroke="black" cx="639.844" cy="-418" rx="35.194" ry="18"/>
<text text-anchor="middle" x="639.844" y="-414.3" font-family="Times New Roman,serif" font-size="14.00">Admin</text>
</g>
<!-- User -->
<g id="node23" class="node"><title>User</title>
<ellipse fill="none" stroke="black" cx="639.844" cy="-324" rx="27.8951" ry="18"/>
<text text-anchor="middle" x="639.844" y="-320.3" font-family="Times New Roman,serif" font-size="14.00">User</text>
</g>
<!-- Admin&#45;&gt;User -->
<g id="edge2" class="edge"><title>Admin&#45;&gt;User</title>
<path fill="none" stroke="#29d97f" d="M639.844,-391.451C639.844,-378.702 639.844,-363.322 639.844,-350.57"/>
<ellipse fill="none" stroke="#29d97f" cx="639.844" cy="-395.696" rx="4" ry="4"/>
<ellipse fill="#29d97f" stroke="#29d97f" cx="639.844" cy="-346.227" rx="4" ry="4"/>
</g>
<!-- Category -->
<g id="node4" class="node"><title>Category</title>
<ellipse fill="none" stroke="black" cx="1258.84" cy="-178" rx="44.393" ry="18"/>
<text text-anchor="middle" x="1258.84" y="-174.3" font-family="Times New Roman,serif" font-size="14.00">Category</text>
</g>
<!-- Crate&#45;&gt;ActiveStatus -->
<g id="edge6" class="edge"><title>Crate&#45;&gt;ActiveStatus</title>
<path fill="none" stroke="#709573" d="M1265.33,-277.147C1265.68,-283.847 1265.68,-291.087 1265.34,-297.791"/>
<ellipse fill="none" stroke="#709573" cx="1265.01" cy="-273.017" rx="4" ry="4"/>
<ellipse fill="#709573" stroke="#709573" cx="1265.03" cy="-301.825" rx="4" ry="4"/>
</g>
<!-- Crate&#45;&gt;Category -->
<g id="edge3" class="edge"><title>Crate&#45;&gt;Category</title>
<path fill="none" stroke="#d6f192" d="M1258.84,-224.791C1258.84,-218.087 1258.84,-210.847 1258.84,-204.147"/>
<ellipse fill="none" stroke="#d6f192" cx="1258.84" cy="-228.813" rx="4" ry="4"/>
<ellipse fill="#d6f192" stroke="#d6f192" cx="1258.84" cy="-200.029" rx="4" ry="4"/>
</g>
<!-- Location -->
<g id="node11" class="node"><title>Location</title>
<ellipse fill="none" stroke="black" cx="971.844" cy="-178" rx="42.7926" ry="18"/>
<text text-anchor="middle" x="971.844" y="-174.3" font-family="Times New Roman,serif" font-size="14.00">Location</text>
</g>
<!-- Crate&#45;&gt;Location -->
<g id="edge11" class="edge"><title>Crate&#45;&gt;Location</title>
<path fill="none" stroke="#6dbff9" d="M1227.79,-235.729C1225.13,-234.732 1222.46,-233.805 1219.84,-233 1135.12,-206.902 1109.71,-218.042 1023.84,-196 1019.86,-194.978 1015.74,-193.816 1011.64,-192.591"/>
<ellipse fill="none" stroke="#6dbff9" cx="1231.94" cy="-237.393" rx="4.00001" ry="4.00001"/>
<ellipse fill="#6dbff9" stroke="#6dbff9" cx="1007.65" cy="-191.357" rx="4.00001" ry="4.00001"/>
</g>
<!-- Picture -->
<g id="node12" class="node"><title>Picture</title>
<ellipse fill="none" stroke="black" cx="1068.84" cy="-178" rx="36.2938" ry="18"/>
<text text-anchor="middle" x="1068.84" y="-174.3" font-family="Times New Roman,serif" font-size="14.00">Picture</text>
</g>
<!-- Crate&#45;&gt;Picture -->
<g id="edge9" class="edge"><title>Crate&#45;&gt;Picture</title>
<path fill="none" stroke="#e6fcf4" d="M1227.42,-236.071C1224.87,-235.01 1222.32,-233.974 1219.84,-233 1173.8,-214.88 1161.38,-212.799 1114.84,-196 1112.14,-195.024 1109.35,-194.011 1106.54,-192.986"/>
<ellipse fill="none" stroke="#e6fcf4" cx="1231.35" cy="-237.735" rx="4.00002" ry="4.00002"/>
<polygon fill="#e6fcf4" stroke="#e6fcf4" points="1106.43,-192.942 1098.59,-185.272 1101.73,-191.219 1097.04,-189.497 1097.04,-189.497 1097.04,-189.497 1101.73,-191.219 1095.49,-193.721 1106.43,-192.942 1106.43,-192.942"/>
</g>
<!-- Quality -->
<g id="node14" class="node"><title>Quality</title>
<ellipse fill="none" stroke="black" cx="1159.84" cy="-178" rx="36.2938" ry="18"/>
<text text-anchor="middle" x="1159.84" y="-174.3" font-family="Times New Roman,serif" font-size="14.00">Quality</text>
</g>
<!-- Crate&#45;&gt;Quality -->
<g id="edge5" class="edge"><title>Crate&#45;&gt;Quality</title>
<path fill="none" stroke="#d9504d" d="M1233.39,-231.749C1219.05,-221.459 1201.14,-208.615 1186.58,-198.178"/>
<ellipse fill="none" stroke="#d9504d" cx="1236.97" cy="-234.314" rx="4.00002" ry="4.00002"/>
<ellipse fill="#d9504d" stroke="#d9504d" cx="1182.99" cy="-195.6" rx="4.00002" ry="4.00002"/>
</g>
<!-- Query -->
<g id="node15" class="node"><title>Query</title>
<ellipse fill="none" stroke="black" cx="478.844" cy="-178" rx="33.2948" ry="18"/>
<text text-anchor="middle" x="478.844" y="-174.3" font-family="Times New Roman,serif" font-size="14.00">Query</text>
</g>
<!-- Crate&#45;&gt;Query -->
<g id="edge10" class="edge"><title>Crate&#45;&gt;Query</title>
<path fill="none" stroke="#3b9868" d="M1228.62,-235.604C1225.7,-234.585 1222.74,-233.69 1219.84,-233 1076.72,-198.96 704.67,-215.458 558.844,-196 545.517,-194.222 531.104,-191.433 518.232,-188.625"/>
<ellipse fill="none" stroke="#3b9868" cx="1232.48" cy="-237.092" rx="4.00001" ry="4.00001"/>
<polygon fill="#3b9868" stroke="#3b9868" points="518.045,-188.583 509.277,-181.998 513.167,-187.485 508.289,-186.388 508.289,-186.388 508.289,-186.388 513.167,-187.485 507.301,-190.778 518.045,-188.583 518.045,-188.583"/>
</g>
<!-- State -->
<g id="node19" class="node"><title>State</title>
<ellipse fill="none" stroke="black" cx="1349.84" cy="-178" rx="28.6953" ry="18"/>
<text text-anchor="middle" x="1349.84" y="-174.3" font-family="Times New Roman,serif" font-size="14.00">State</text>
</g>
<!-- Crate&#45;&gt;State -->
<g id="edge4" class="edge"><title>Crate&#45;&gt;State</title>
<path fill="none" stroke="#7d9e55" d="M1283.2,-230.996C1296.45,-220.659 1312.77,-207.923 1325.95,-197.643"/>
<ellipse fill="none" stroke="#7d9e55" cx="1279.98" cy="-233.512" rx="4.00002" ry="4.00002"/>
<ellipse fill="#7d9e55" stroke="#7d9e55" cx="1329.37" cy="-194.977" rx="4.00002" ry="4.00002"/>
</g>
<!-- Tag -->
<g id="node21" class="node"><title>Tag</title>
<ellipse fill="none" stroke="black" cx="1461.84" cy="-178" rx="27" ry="18"/>
<text text-anchor="middle" x="1461.84" y="-174.3" font-family="Times New Roman,serif" font-size="14.00">Tag</text>
</g>
<!-- Crate&#45;&gt;Tag -->
<g id="edge8" class="edge"><title>Crate&#45;&gt;Tag</title>
<path fill="none" stroke="#99d73e" d="M1299.04,-246.989C1333.02,-243.148 1382.19,-234.475 1420.84,-215 1427.94,-211.425 1434.79,-206.329 1440.79,-201.091"/>
<polygon fill="#99d73e" stroke="#99d73e" points="1298.96,-246.997 1288.55,-243.556 1293.99,-247.515 1289.02,-248.032 1289.02,-248.032 1289.02,-248.032 1293.99,-247.515 1289.48,-252.508 1298.96,-246.997 1298.96,-246.997"/>
<polygon fill="#99d73e" stroke="#99d73e" points="1441.08,-200.818 1451.46,-197.279 1444.73,-197.404 1448.39,-193.991 1448.39,-193.991 1448.39,-193.991 1444.73,-197.404 1445.31,-190.703 1441.08,-200.818 1441.08,-200.818"/>
</g>
<!-- Tagging -->
<g id="node22" class="node"><title>Tagging</title>
<ellipse fill="none" stroke="black" cx="1418.84" cy="-105" rx="40.0939" ry="18"/>
<text text-anchor="middle" x="1418.84" y="-101.3" font-family="Times New Roman,serif" font-size="14.00">Tagging</text>
</g>
<!-- Crate&#45;&gt;Tagging -->
<g id="edge7" class="edge"><title>Crate&#45;&gt;Tagging</title>
<path fill="none" stroke="#048249" d="M1295.72,-243.154C1324.44,-236.011 1363.41,-222.069 1387.84,-196 1404.03,-178.727 1411.81,-152.603 1415.52,-132.943"/>
<ellipse fill="none" stroke="#048249" cx="1291.8" cy="-244.076" rx="4.00001" ry="4.00001"/>
<polygon fill="#048249" stroke="#048249" points="1415.52,-132.924 1421.59,-123.791 1416.34,-127.991 1417.15,-123.058 1417.15,-123.058 1417.15,-123.058 1416.34,-127.991 1412.71,-122.325 1415.52,-132.924 1415.52,-132.924"/>
</g>
<!-- ForumCategory -->
<g id="node6" class="node"><title>ForumCategory</title>
<ellipse fill="none" stroke="black" cx="227.844" cy="-178" rx="68.4888" ry="18"/>
<text text-anchor="middle" x="227.844" y="-174.3" font-family="Times New Roman,serif" font-size="14.00">ForumCategory</text>
</g>
<!-- ForumPost -->
<g id="node8" class="node"><title>ForumPost</title>
<ellipse fill="none" stroke="black" cx="227.844" cy="-251" rx="51.9908" ry="18"/>
<text text-anchor="middle" x="227.844" y="-247.3" font-family="Times New Roman,serif" font-size="14.00">ForumPost</text>
</g>
<!-- ForumCategory&#45;&gt;ForumPost -->
<g id="edge12" class="edge"><title>ForumCategory&#45;&gt;ForumPost</title>
<path fill="none" stroke="#62a797" d="M234.344,-204.377C234.646,-210.338 234.674,-216.714 234.429,-222.753"/>
<ellipse fill="none" stroke="#62a797" cx="234.01" cy="-200.017" rx="4" ry="4"/>
<polygon fill="#62a797" stroke="#62a797" points="234.423,-222.837 229.233,-232.497 234.073,-227.825 233.722,-232.813 233.722,-232.813 233.722,-232.813 234.073,-227.825 238.211,-233.128 234.423,-222.837 234.423,-222.837"/>
</g>
<!-- ForumComment -->
<g id="node7" class="node"><title>ForumComment</title>
<ellipse fill="none" stroke="black" cx="70.8437" cy="-178" rx="70.6878" ry="18"/>
<text text-anchor="middle" x="70.8437" y="-174.3" font-family="Times New Roman,serif" font-size="14.00">ForumComment</text>
</g>
<!-- PublicActivity::Activity -->
<g id="node26" class="node"><title>PublicActivity::Activity</title>
<ellipse fill="none" stroke="black" cx="410.844" cy="-18" rx="94.4839" ry="18"/>
<text text-anchor="middle" x="410.844" y="-14.3" font-family="Times New Roman,serif" font-size="14.00">PublicActivity::Activity</text>
</g>
<!-- ForumComment&#45;&gt;PublicActivity::Activity -->
<g id="edge13" class="edge"><title>ForumComment&#45;&gt;PublicActivity::Activity</title>
<path fill="none" stroke="#30e57f" d="M110.941,-158.366C175.296,-128.46 301.124,-69.9872 367.488,-39.1476"/>
<ellipse fill="none" stroke="#30e57f" cx="107.072" cy="-160.165" rx="4.00002" ry="4.00002"/>
<polygon fill="#30e57f" stroke="#30e57f" points="367.765,-39.019 378.73,-38.8855 372.299,-36.9118 376.834,-34.8047 376.834,-34.8047 376.834,-34.8047 372.299,-36.9118 374.937,-30.7238 367.765,-39.019 367.765,-39.019"/>
<text text-anchor="middle" x="288.344" y="-101.3" font-family="Times New Roman,serif" font-size="14.00">activities</text>
</g>
<!-- ForumPost&#45;&gt;ForumCategory -->
<g id="edge14" class="edge"><title>ForumPost&#45;&gt;ForumCategory</title>
<path fill="none" stroke="#11d428" d="M221.352,-224.791C221.006,-218.087 221.007,-210.847 221.356,-204.147"/>
<ellipse fill="none" stroke="#11d428" cx="221.661" cy="-228.825" rx="4" ry="4"/>
<ellipse fill="#11d428" stroke="#11d428" cx="221.674" cy="-200.017" rx="4" ry="4"/>
</g>
<!-- ForumPost&#45;&gt;ForumComment -->
<g id="edge16" class="edge"><title>ForumPost&#45;&gt;ForumComment</title>
<path fill="none" stroke="#44e0f0" d="M190.064,-232.915C166.896,-222.438 137.185,-209.001 113.219,-198.163"/>
<ellipse fill="none" stroke="#44e0f0" cx="193.928" cy="-234.662" rx="4.00002" ry="4.00002"/>
<polygon fill="#44e0f0" stroke="#44e0f0" points="113.119,-198.118 105.862,-189.897 108.563,-196.058 104.007,-193.998 104.007,-193.998 104.007,-193.998 108.563,-196.058 102.153,-198.098 113.119,-198.118 113.119,-198.118"/>
</g>
<!-- Subscription -->
<g id="node20" class="node"><title>Subscription</title>
<ellipse fill="none" stroke="black" cx="370.844" cy="-178" rx="57.3905" ry="18"/>
<text text-anchor="middle" x="370.844" y="-174.3" font-family="Times New Roman,serif" font-size="14.00">Subscription</text>
</g>
<!-- ForumPost&#45;&gt;Subscription -->
<g id="edge15" class="edge"><title>ForumPost&#45;&gt;Subscription</title>
<path fill="none" stroke="#3cab76" d="M263.627,-232.233C284.505,-221.867 310.849,-208.787 332.199,-198.187"/>
<ellipse fill="none" stroke="#3cab76" cx="260.021" cy="-234.024" rx="4.00002" ry="4.00002"/>
<polygon fill="#3cab76" stroke="#3cab76" points="332.359,-198.108 343.317,-197.691 336.837,-195.884 341.316,-193.661 341.316,-193.661 341.316,-193.661 336.837,-195.884 339.314,-189.63 332.359,-198.108 332.359,-198.108"/>
</g>
<!-- Group -->
<g id="node9" class="node"><title>Group</title>
<ellipse fill="none" stroke="black" cx="639.844" cy="-251" rx="34.394" ry="18"/>
<text text-anchor="middle" x="639.844" y="-247.3" font-family="Times New Roman,serif" font-size="14.00">Group</text>
</g>
<!-- GroupMembership -->
<g id="node10" class="node"><title>GroupMembership</title>
<ellipse fill="none" stroke="black" cx="647.844" cy="-178" rx="79.8859" ry="18"/>
<text text-anchor="middle" x="647.844" y="-174.3" font-family="Times New Roman,serif" font-size="14.00">GroupMembership</text>
</g>
<!-- Group&#45;&gt;GroupMembership -->
<g id="edge17" class="edge"><title>Group&#45;&gt;GroupMembership</title>
<path fill="none" stroke="#beec57" d="M642.684,-224.791C643.356,-218.832 644.075,-212.45 644.757,-206.399"/>
<ellipse fill="none" stroke="#beec57" cx="642.228" cy="-228.838" rx="4.00001" ry="4.00001"/>
<polygon fill="#beec57" stroke="#beec57" points="644.805,-205.966 650.397,-196.533 645.365,-200.997 645.925,-196.029 645.925,-196.029 645.925,-196.029 645.365,-200.997 641.453,-195.525 644.805,-205.966 644.805,-205.966"/>
</g>
<!-- Profile -->
<g id="node13" class="node"><title>Profile</title>
<ellipse fill="none" stroke="black" cx="726.844" cy="-251" rx="34.394" ry="18"/>
<text text-anchor="middle" x="726.844" y="-247.3" font-family="Times New Roman,serif" font-size="14.00">Profile</text>
</g>
<!-- Reply -->
<g id="node17" class="node"><title>Reply</title>
<ellipse fill="none" stroke="black" cx="509.844" cy="-105" rx="32.4942" ry="18"/>
<text text-anchor="middle" x="509.844" y="-101.3" font-family="Times New Roman,serif" font-size="14.00">Reply</text>
</g>
<!-- Query&#45;&gt;Reply -->
<g id="edge19" class="edge"><title>Query&#45;&gt;Reply</title>
<path fill="none" stroke="#34613a" d="M489.495,-152.606C492.387,-145.982 495.53,-138.783 498.461,-132.07"/>
<ellipse fill="none" stroke="#34613a" cx="487.791" cy="-156.508" rx="4.00002" ry="4.00002"/>
<polygon fill="#34613a" stroke="#34613a" points="498.548,-131.87 506.674,-124.506 500.549,-127.288 502.55,-122.705 502.55,-122.705 502.55,-122.705 500.549,-127.288 498.426,-120.905 498.548,-131.87 498.548,-131.87"/>
</g>
<!-- Query&#45;&gt;PublicActivity::Activity -->
<g id="edge18" class="edge"><title>Query&#45;&gt;PublicActivity::Activity</title>
<path fill="none" stroke="#32383b" d="M451.472,-159.079C439.657,-149.802 426.94,-137.397 419.844,-123 408.054,-99.0816 406.844,-68.301 407.946,-46.4482"/>
<ellipse fill="none" stroke="#32383b" cx="454.703" cy="-161.503" rx="4.00002" ry="4.00002"/>
<polygon fill="#32383b" stroke="#32383b" points="407.964,-46.1883 413.152,-36.5273 408.314,-41.2005 408.663,-36.2127 408.663,-36.2127 408.663,-36.2127 408.314,-41.2005 404.174,-35.8982 407.964,-46.1883 407.964,-46.1883"/>
<text text-anchor="middle" x="444.344" y="-101.3" font-family="Times New Roman,serif" font-size="14.00">activities</text>
</g>
<!-- Rating -->
<g id="node16" class="node"><title>Rating</title>
<ellipse fill="none" stroke="black" cx="727.844" cy="-418" rx="34.394" ry="18"/>
<text text-anchor="middle" x="727.844" y="-414.3" font-family="Times New Roman,serif" font-size="14.00">Rating</text>
</g>
<!-- Reply&#45;&gt;PublicActivity::Activity -->
<g id="edge20" class="edge"><title>Reply&#45;&gt;PublicActivity::Activity</title>
<path fill="none" stroke="#afba66" d="M486.591,-84.0355C472.054,-71.5545 453.268,-55.4253 438.042,-42.3521"/>
<ellipse fill="none" stroke="#afba66" cx="490.015" cy="-86.9752" rx="4.00002" ry="4.00002"/>
<polygon fill="#afba66" stroke="#afba66" points="438.033,-42.344 433.377,-32.4155 434.239,-39.0869 430.445,-35.8298 430.445,-35.8298 430.445,-35.8298 434.239,-39.0869 427.514,-39.244 438.033,-42.344 438.033,-42.344"/>
<text text-anchor="middle" x="491.344" y="-57.8" font-family="Times New Roman,serif" font-size="14.00">activities</text>
</g>
<!-- Report -->
<g id="node18" class="node"><title>Report</title>
<ellipse fill="none" stroke="black" cx="815.844" cy="-251" rx="36.2938" ry="18"/>
<text text-anchor="middle" x="815.844" y="-247.3" font-family="Times New Roman,serif" font-size="14.00">Report</text>
</g>
<!-- Tag&#45;&gt;Tagging -->
<g id="edge21" class="edge"><title>Tag&#45;&gt;Tagging</title>
<path fill="none" stroke="#d48294" d="M1447.79,-153.789C1443.44,-146.614 1438.63,-138.675 1434.2,-131.363"/>
<ellipse fill="none" stroke="#d48294" cx="1450.01" cy="-157.468" rx="4.00002" ry="4.00002"/>
<polygon fill="#d48294" stroke="#d48294" points="1434.04,-131.094 1432.71,-120.209 1431.45,-126.817 1428.86,-122.54 1428.86,-122.54 1428.86,-122.54 1431.45,-126.817 1425.01,-124.871 1434.04,-131.094 1434.04,-131.094"/>
</g>
<!-- User&#45;&gt;Crate -->
<g id="edge25" class="edge"><title>User&#45;&gt;Crate</title>
<path fill="none" stroke="#e040d2" d="M676.021,-323.579C768.28,-324.215 1019.22,-320.646 1219.84,-269 1222.14,-268.41 1224.47,-267.7 1226.79,-266.912"/>
<ellipse fill="none" stroke="#e040d2" cx="671.85" cy="-323.543" rx="4" ry="4"/>
<polygon fill="#e040d2" stroke="#e040d2" points="1226.84,-266.893 1237.79,-267.522 1231.51,-265.106 1236.18,-263.319 1236.18,-263.319 1236.18,-263.319 1231.51,-265.106 1234.57,-259.116 1226.84,-266.893 1226.84,-266.893"/>
</g>
<!-- User&#45;&gt;ForumComment -->
<g id="edge31" class="edge"><title>User&#45;&gt;ForumComment</title>
<path fill="none" stroke="#d47db0" d="M603.999,-321.808C507.583,-318.148 244.74,-305.047 166.844,-269 135.179,-254.347 107.127,-225.145 89.6484,-203.969"/>
<ellipse fill="none" stroke="#d47db0" cx="607.999" cy="-321.956" rx="4" ry="4"/>
<polygon fill="#d47db0" stroke="#d47db0" points="89.5223,-203.812 86.7723,-193.196 86.3925,-199.912 83.2628,-196.013 83.2628,-196.013 83.2628,-196.013 86.3925,-199.912 79.7534,-198.83 89.5223,-203.812 89.5223,-203.812"/>
</g>
<!-- User&#45;&gt;ForumPost -->
<g id="edge30" class="edge"><title>User&#45;&gt;ForumPost</title>
<path fill="none" stroke="#afbe0a" d="M604.454,-318.615C557.207,-312.593 470.98,-301.018 397.844,-288 358.141,-280.933 313.55,-271.431 280.001,-263.963"/>
<ellipse fill="none" stroke="#afbe0a" cx="608.563" cy="-319.136" rx="4.00001" ry="4.00001"/>
<polygon fill="#afbe0a" stroke="#afbe0a" points="279.72,-263.9 270.944,-257.325 274.841,-262.808 269.961,-261.716 269.961,-261.716 269.961,-261.716 274.841,-262.808 268.979,-266.107 279.72,-263.9 279.72,-263.9"/>
</g>
<!-- User&#45;&gt;Group -->
<g id="edge23" class="edge"><title>User&#45;&gt;Group</title>
<path fill="none" stroke="#9b768b" d="M639.844,-295.753C639.844,-290.276 639.844,-284.521 639.844,-279.051"/>
<polygon fill="#9b768b" stroke="#9b768b" points="639.844,-295.813 635.344,-305.813 639.844,-300.813 639.844,-305.813 639.844,-305.813 639.844,-305.813 639.844,-300.813 644.344,-305.813 639.844,-295.813 639.844,-295.813"/>
<polygon fill="#9b768b" stroke="#9b768b" points="639.844,-279.029 644.344,-269.029 639.844,-274.029 639.844,-269.029 639.844,-269.029 639.844,-269.029 639.844,-274.029 635.344,-269.029 639.844,-279.029 639.844,-279.029"/>
</g>
<!-- User&#45;&gt;GroupMembership -->
<g id="edge22" class="edge"><title>User&#45;&gt;GroupMembership</title>
<path fill="none" stroke="#df07e8" d="M618.196,-302.612C609.822,-293.271 601.213,-281.501 596.844,-269 591.565,-253.896 590.933,-247.868 596.844,-233 601.413,-221.508 609.716,-211.047 618.315,-202.458"/>
<ellipse fill="none" stroke="#df07e8" cx="621.159" cy="-305.758" rx="4.00002" ry="4.00002"/>
<polygon fill="#df07e8" stroke="#df07e8" points="618.551,-202.238 628.932,-198.703 622.206,-198.826 625.861,-195.414 625.861,-195.414 625.861,-195.414 622.206,-198.826 622.79,-192.124 618.551,-202.238 618.551,-202.238"/>
</g>
<!-- User&#45;&gt;Profile -->
<g id="edge26" class="edge"><title>User&#45;&gt;Profile</title>
<path fill="none" stroke="#a4d5b6" d="M662.934,-304.156C675.203,-294.144 690.272,-281.846 702.696,-271.707"/>
<ellipse fill="none" stroke="#a4d5b6" cx="659.717" cy="-306.781" rx="4.00002" ry="4.00002"/>
<ellipse fill="#a4d5b6" stroke="#a4d5b6" cx="705.824" cy="-269.154" rx="4.00002" ry="4.00002"/>
</g>
<!-- User&#45;&gt;Query -->
<g id="edge32" class="edge"><title>User&#45;&gt;Query</title>
<path fill="none" stroke="#76a20e" d="M604.213,-319.883C579.57,-316.019 547.451,-307.368 525.844,-288 501.809,-266.456 489.591,-230.474 483.727,-205.784"/>
<ellipse fill="none" stroke="#76a20e" cx="608.297" cy="-320.46" rx="4.00001" ry="4.00001"/>
<polygon fill="#76a20e" stroke="#76a20e" points="483.717,-205.739 485.983,-195.01 482.652,-200.854 481.587,-195.969 481.587,-195.969 481.587,-195.969 482.652,-200.854 477.19,-196.928 483.717,-205.739 483.717,-205.739"/>
</g>
<!-- User&#45;&gt;Reply -->
<g id="edge33" class="edge"><title>User&#45;&gt;Reply</title>
<path fill="none" stroke="#d3d71f" d="M617.888,-303.458C612.775,-298.577 607.475,-293.237 602.844,-288 560.838,-240.501 532.16,-170.632 518.671,-132.769"/>
<ellipse fill="none" stroke="#d3d71f" cx="620.832" cy="-306.211" rx="4.00002" ry="4.00002"/>
<polygon fill="#d3d71f" stroke="#d3d71f" points="518.554,-132.429 519.522,-121.506 516.912,-127.706 515.271,-122.983 515.271,-122.983 515.271,-122.983 516.912,-127.706 511.021,-124.46 518.554,-132.429 518.554,-132.429"/>
</g>
<!-- User&#45;&gt;Report -->
<g id="edge29" class="edge"><title>User&#45;&gt;Report</title>
<path fill="none" stroke="#85348d" d="M672.171,-309.959C702.422,-297.755 747.567,-279.544 779.155,-266.801"/>
<polygon fill="#85348d" stroke="#85348d" points="672.126,-309.977 661.169,-309.545 667.49,-311.847 662.853,-313.718 662.853,-313.718 662.853,-313.718 667.49,-311.847 664.536,-317.891 672.126,-309.977 672.126,-309.977"/>
<polygon fill="#85348d" stroke="#85348d" points="779.218,-266.775 790.175,-267.207 783.855,-264.905 788.492,-263.034 788.492,-263.034 788.492,-263.034 783.855,-264.905 786.808,-258.861 779.218,-266.775 779.218,-266.775"/>
</g>
<!-- User&#45;&gt;Subscription -->
<g id="edge34" class="edge"><title>User&#45;&gt;Subscription</title>
<path fill="none" stroke="#3f85ac" d="M603.914,-314.678C580.132,-308.607 548.528,-299.451 521.844,-288 472.627,-266.879 423.881,-227.454 395.602,-202.256"/>
<polygon fill="#3f85ac" stroke="#3f85ac" points="604.213,-314.753 612.83,-321.535 609.065,-315.96 613.917,-317.168 613.917,-317.168 613.917,-317.168 609.065,-315.96 615.004,-312.802 604.213,-314.753 604.213,-314.753"/>
<polygon fill="#3f85ac" stroke="#3f85ac" points="395.263,-201.948 390.864,-191.903 391.554,-198.595 387.846,-195.241 387.846,-195.241 387.846,-195.241 391.554,-198.595 384.827,-198.578 395.263,-201.948 395.263,-201.948"/>
</g>
<!-- UserRating -->
<g id="node24" class="node"><title>UserRating</title>
<ellipse fill="none" stroke="black" cx="921.844" cy="-251" rx="51.1914" ry="18"/>
<text text-anchor="middle" x="921.844" y="-247.3" font-family="Times New Roman,serif" font-size="14.00">UserRating</text>
</g>
<!-- User&#45;&gt;UserRating -->
<g id="edge24" class="edge"><title>User&#45;&gt;UserRating</title>
<path fill="none" stroke="#7a207f" d="M673.732,-315.077C717.177,-304.838 794.79,-286.269 860.844,-269 864.912,-267.936 869.127,-266.811 873.353,-265.666"/>
<ellipse fill="none" stroke="#7a207f" cx="669.663" cy="-316.034" rx="4.00001" ry="4.00001"/>
<polygon fill="#7a207f" stroke="#7a207f" points="873.526,-265.619 884.359,-267.32 878.348,-264.299 883.171,-262.979 883.171,-262.979 883.171,-262.979 878.348,-264.299 881.983,-258.639 873.526,-265.619 873.526,-265.619"/>
</g>
<!-- UserStatus -->
<g id="node25" class="node"><title>UserStatus</title>
<ellipse fill="none" stroke="black" cx="1040.84" cy="-251" rx="50.0912" ry="18"/>
<text text-anchor="middle" x="1040.84" y="-247.3" font-family="Times New Roman,serif" font-size="14.00">UserStatus</text>
</g>
<!-- User&#45;&gt;UserStatus -->
<g id="edge27" class="edge"><title>User&#45;&gt;UserStatus</title>
<path fill="none" stroke="#50604b" d="M675.056,-318.903C737.362,-311.33 870.93,-293.636 981.844,-269 986.51,-267.963 991.352,-266.768 996.165,-265.502"/>
<ellipse fill="none" stroke="#50604b" cx="671.074" cy="-319.383" rx="4.00001" ry="4.00001"/>
<ellipse fill="#50604b" stroke="#50604b" cx="1000.34" cy="-264.368" rx="4.00001" ry="4.00001"/>
</g>
<!-- Reportable -->
<g id="node27" class="node"><title>Reportable</title>
<ellipse fill="none" stroke="black" cx="1159.84" cy="-251" rx="50.8918" ry="18"/>
<text text-anchor="middle" x="1159.84" y="-247.3" font-family="Times New Roman,serif" font-size="14.00">Reportable</text>
</g>
<!-- User&#45;&gt;Reportable -->
<g id="edge28" class="edge"><title>User&#45;&gt;Reportable</title>
<path fill="none" stroke="#aba08f" d="M675.611,-320.749C753.387,-315.429 943.479,-300.124 1099.84,-269 1104.2,-268.132 1108.71,-267.106 1113.2,-265.994"/>
<ellipse fill="none" stroke="#aba08f" cx="671.554" cy="-321.022" rx="4" ry="4"/>
<polygon fill="#aba08f" stroke="#aba08f" points="1113.26,-265.976 1124.08,-267.806 1118.1,-264.714 1122.94,-263.451 1122.94,-263.451 1122.94,-263.451 1118.1,-264.714 1121.8,-259.097 1113.26,-265.976 1113.26,-265.976"/>
</g>
</g>
</svg>
